<svg viewBox="0 0 24 24" xmlns="http://www.w3.org/2000/svg" xmlns:xlink="http://www.w3.org/1999/xlink" width="24.000000" height="24.000000" opacity="0.800000012" fill="none">
	<rect id="facebook-square-mono" width="24.000000" height="24.000000" x="0.000000" y="0.000000" />
	<path id="Vector" d="M0.653961 3.27606C0 4.55953 0 6.23969 0 9.6L0 14.4C0 17.7603 0 19.4405 0.653961 20.7239C1.2292 21.8529 2.14708 22.7708 3.27606 23.346C4.55953 24 6.23969 24 9.6 24L11.8972 24L11.8972 14.9022L8.4939 14.9022L8.4939 11.0704L11.8972 11.0704L11.8972 8.15005C11.8972 4.82785 13.8984 2.99277 16.9601 2.99277C18.4266 2.99277 19.9606 3.25167 19.9606 3.25167L19.9606 6.5138L18.2704 6.5138C16.6052 6.5138 16.086 7.53558 16.086 8.58386L16.086 11.0704L19.8035 11.0704L19.2092 14.9022L16.086 14.9022L16.086 23.996C18.3628 23.978 19.6757 23.8802 20.7239 23.346C21.8529 22.7708 22.7708 21.8529 23.346 20.7239C24 19.4405 24 17.7603 24 14.4L24 9.6C24 6.23969 24 4.55953 23.346 3.27606C22.7708 2.14708 21.8529 1.2292 20.7239 0.653961C19.4405 0 17.7603 0 14.4 0L9.6 0C6.23969 0 4.55953 0 3.27606 0.653961C2.14708 1.2292 1.2292 2.14708 0.653961 3.27606Z" fill="rgb(246,246,246)" fill-rule="nonzero" />
</svg>
