<svg viewBox="0 0 24 23.999" xmlns="http://www.w3.org/2000/svg" xmlns:xlink="http://www.w3.org/1999/xlink" width="24.000000" height="23.999023" opacity="0.800000012" fill="none">
	<rect id="instagram-square-mono" width="24.000000" height="23.999273" x="0.000000" y="0.000000" />
	<path id="Vector" d="M0 9.6C0 6.23969 0 4.55953 0.653961 3.27606C1.2292 2.14708 2.14708 1.2292 3.27606 0.653961C4.55953 0 6.23969 0 9.6 0L14.4 0C17.7603 0 19.4405 0 20.7239 0.653961C21.8529 1.2292 22.7708 2.14708 23.346 3.27606C24 4.55953 24 6.23969 24 9.6L24 14.4C24 17.7603 24 19.4405 23.346 20.7239C22.7708 21.8529 21.8529 22.7708 20.7239 23.346C19.4405 24 17.7603 24 14.4 24L9.6 24C6.23969 24 4.55953 24 3.27606 23.346C2.14708 22.7708 1.2292 21.8529 0.653961 20.7239C0 19.4405 0 17.7603 0 14.4L0 9.6ZM11.9977 3.27263C9.6301 3.27264 9.33253 3.28301 8.402 3.32535C7.47294 3.3679 6.83878 3.51498 6.28389 3.7308C5.7099 3.9537 5.22301 4.25187 4.73793 4.73713C4.25249 5.22221 3.95432 5.7091 3.73069 6.2829C3.51433 6.83797 3.36707 7.47232 3.32525 8.40102C3.28361 9.3319 3.27271 9.62953 3.27271 11.9996C3.27271 14.3697 3.28325 14.6663 3.32543 15.5972C3.36816 16.5262 3.51524 17.1604 3.73087 17.7153C3.95396 18.2893 4.25213 18.7762 4.73739 19.2612C5.22228 19.7467 5.70918 20.0456 6.2828 20.2685C6.83805 20.4843 7.4724 20.6314 8.40128 20.6739C9.33216 20.7163 9.62942 20.7266 11.9993 20.7266C14.3696 20.7266 14.6662 20.7163 15.5971 20.6739C16.5261 20.6314 17.161 20.4843 17.7163 20.2685C18.2901 20.0456 18.7762 19.7467 19.2611 19.2612C19.7466 18.7762 20.0447 18.2893 20.2684 17.7155C20.4829 17.1604 20.6302 16.526 20.6738 15.5973C20.7156 14.6665 20.7265 14.3697 20.7265 11.9996C20.7265 9.62953 20.7156 9.33208 20.6738 8.4012C20.6302 7.47214 20.4829 6.83797 20.2684 6.28308C20.0447 5.7091 19.7466 5.22221 19.2611 4.73713C18.7757 4.25169 18.2903 3.95352 17.7157 3.7308C17.1594 3.51498 16.5248 3.3679 15.5958 3.32535C14.6653 3.28301 14.3688 3.27264 12.0004 3.27263L11.9977 3.27263ZM11.7096 4.84522L11.7093 4.84522C11.5329 4.84514 11.3695 4.84507 11.2176 4.84531L11.2176 4.84313C9.59106 4.84494 9.27907 4.85585 8.474 4.89222C7.62312 4.93131 7.16113 5.07312 6.85351 5.19312C6.44625 5.35166 6.15534 5.54074 5.8499 5.84619C5.54445 6.15163 5.35501 6.44253 5.19683 6.84979C5.07738 7.15742 4.9352 7.61922 4.89629 8.47011C4.85448 9.39008 4.84611 9.66498 4.84611 11.9955C4.84611 14.3259 4.85448 14.6023 4.89629 15.5223C4.93502 16.3731 5.07738 16.8349 5.19683 17.1422C5.35537 17.5497 5.54445 17.8398 5.8499 18.1453C6.15534 18.4507 6.44625 18.6398 6.85351 18.798C7.16131 18.9174 7.62312 19.0596 8.474 19.0989C9.39397 19.1407 9.67015 19.1498 12.0004 19.1498C14.3306 19.1498 14.6069 19.1407 15.5269 19.0989C16.3778 19.06 16.8399 18.9182 17.1472 18.7982C17.5546 18.64 17.8446 18.4509 18.1501 18.1454C18.4555 17.8402 18.645 17.5502 18.8031 17.1429C18.9226 16.8357 19.0648 16.3739 19.1037 15.523C19.1455 14.603 19.1546 14.3267 19.1546 11.9976C19.1546 9.66862 19.1455 9.39226 19.1037 8.47229C19.065 7.62141 18.9226 7.1596 18.8031 6.85234C18.6446 6.44508 18.4555 6.15418 18.1501 5.84873C17.8448 5.54329 17.5545 5.3542 17.1472 5.19602C16.8396 5.07657 16.3778 4.9344 15.5269 4.89549C14.6067 4.85367 14.3306 4.84531 12.0004 4.84531C11.8997 4.84531 11.8028 4.84526 11.7096 4.84522ZM15.6116 7.34123C15.6116 6.76289 16.0807 6.29435 16.6588 6.29435C17.237 6.29435 17.7061 6.76307 17.7061 7.34123C17.7061 7.9194 17.237 8.38847 16.6588 8.38847C16.0807 8.38847 15.6116 7.9194 15.6116 7.34123ZM7.51876 11.9996C7.51876 9.52462 9.52542 7.51795 12.0004 7.51795C14.4755 7.51795 16.4814 9.52462 16.4814 11.9996C16.4814 14.4747 14.4755 16.4804 12.0004 16.4804C9.52542 16.4804 7.51876 14.4747 7.51876 11.9996ZM14.9094 11.9996C14.9094 10.393 13.6069 9.09063 12.0004 9.09063C10.3938 9.09063 9.09144 10.393 9.09144 11.9996C9.09144 13.6061 10.3938 14.9086 12.0004 14.9086C13.6069 14.9086 14.9094 13.6061 14.9094 11.9996Z" fill="rgb(246,246,246)" fill-rule="evenodd" />
</svg>
