<svg viewBox="0 0 16 16" xmlns="http://www.w3.org/2000/svg" xmlns:xlink="http://www.w3.org/1999/xlink" width="16.000000" height="16.000000" fill="none">
	<rect id="Maps and Flags" width="16.000000" height="16.000000" x="0.000000" y="0.000000" fill="rgb(255,255,255)" fill-opacity="0" />
	<g id="Group">
		<g id="Group">
			<path id="Vector" d="M7.99992 0C4.80476 0 2.20532 2.59944 2.20532 5.79456C2.20532 9.75981 7.39092 15.581 7.6117 15.8269C7.81907 16.0579 8.18114 16.0575 8.38813 15.8269C8.60892 15.581 13.7945 9.75981 13.7945 5.79456C13.7944 2.59944 11.195 0 7.99992 0ZM7.99992 8.70997C6.39235 8.70997 5.08454 7.40212 5.08454 5.79456C5.08454 4.187 6.39238 2.87919 7.99992 2.87919C9.60745 2.87919 10.9153 4.18703 10.9153 5.79459C10.9153 7.40216 9.60745 8.70997 7.99992 8.70997Z" fill="rgb(246,246,246)" fill-rule="nonzero" />
		</g>
	</g>
</svg>
