<svg viewBox="0 0 16 16" xmlns="http://www.w3.org/2000/svg" xmlns:xlink="http://www.w3.org/1999/xlink" width="16.000000" height="16.000000" fill="none">
	<rect id="Phone receiver silhouette" width="16.000000" height="16.000000" x="0.000000" y="0.000000" fill="rgb(255,255,255)" fill-opacity="0" />
	<g id="Group">
		<path id="Vector" d="M13.7859 11.1361C12.8193 10.3094 11.8384 9.80864 10.8837 10.6341L10.3136 11.133C9.89654 11.4951 9.12104 13.1872 6.12272 9.73808C3.12502 6.29332 4.90891 5.75697 5.32662 5.39794L5.89981 4.89843C6.84951 4.07112 6.49111 3.02963 5.80616 1.95755L5.39281 1.30819C4.70473 0.238608 3.95546 -0.463831 3.00327 0.362237L2.48877 0.811798C2.06793 1.11837 0.89158 2.1149 0.606233 4.00805C0.262819 6.27958 1.34614 8.88079 3.82809 11.7349C6.30692 14.5902 8.73392 16.0244 11.0329 15.9995C12.9436 15.9789 14.0974 14.9536 14.4583 14.5809L14.9747 14.1307C15.9244 13.3052 15.3343 12.4648 14.3672 11.6362L13.7859 11.1361Z" fill="rgb(246,246,246)" fill-rule="nonzero" />
	</g>
</svg>
